<svg width="80" height="80" viewBox="0 0 80 80" fill="none" xmlns="http://www.w3.org/2000/svg">
  <rect width="80" height="80" rx="15" fill="#e74c3c"/>
  <path d="M40 20C28.954 20 20 28.954 20 40C20 51.046 28.954 60 40 60C51.046 60 60 51.046 60 40C60 28.954 51.046 20 40 20ZM40 56C31.178 56 24 48.822 24 40C24 31.178 31.178 24 40 24C48.822 24 56 31.178 56 40C56 48.822 48.822 56 40 56Z" fill="white"/>
  <path d="M48 40C48 44.418 44.418 48 40 48C35.582 48 32 44.418 32 40C32 35.582 35.582 32 40 32C44.418 32 48 35.582 48 40Z" fill="white"/>
</svg> 