<svg width="80" height="80" viewBox="0 0 80 80" fill="none" xmlns="http://www.w3.org/2000/svg">
  <rect width="80" height="80" rx="15" fill="#2ecc71"/>
  <path d="M40 20C28.954 20 20 28.954 20 40C20 51.046 28.954 60 40 60C51.046 60 60 51.046 60 40C60 28.954 51.046 20 40 20ZM40 56C31.178 56 24 48.822 24 40C24 31.178 31.178 24 40 24C48.822 24 56 31.178 56 40C56 48.822 48.822 56 40 56Z" fill="white"/>
  <path d="M46 34H42V30C42 28.896 41.104 28 40 28C38.896 28 38 28.896 38 30V34H34C32.896 34 32 34.896 32 36C32 37.104 32.896 38 34 38H38V50C38 51.104 38.896 52 40 52C41.104 52 42 51.104 42 50V38H46C47.104 38 48 37.104 48 36C48 34.896 47.104 34 46 34Z" fill="white"/>
</svg> 