<svg width="80" height="80" viewBox="0 0 80 80" fill="none" xmlns="http://www.w3.org/2000/svg">
  <rect width="80" height="80" rx="15" fill="#9b59b6"/>
  <path d="M40 20C28.954 20 20 28.954 20 40C20 51.046 28.954 60 40 60C51.046 60 60 51.046 60 40C60 28.954 51.046 20 40 20ZM40 56C31.178 56 24 48.822 24 40C24 31.178 31.178 24 40 24C48.822 24 56 31.178 56 40C56 48.822 48.822 56 40 56Z" fill="white"/>
  <path d="M44 30H36V42H44V30Z" fill="white"/>
  <path d="M44 46H36V50H44V46Z" fill="white"/>
</svg> 